<svg x="0" y="0" width="300" height="70" version="1.1" xmlns="http://www.w3.org/2000/svg" xmlns:xlink="http://www.w3.org/1999/xlink">
    <defs>
        <linearGradient x1="30" y1="29.50488" x2="30" y2="70.49512" gradientUnits="userSpaceOnUse" id="color-1">
            <stop offset="0" stop-color="#9bd0d0"></stop>
            <stop offset="1" stop-color="#0f88eb"></stop>
        </linearGradient>
    </defs>
    <g
        data-paper-data="{&quot;description&quot;:&quot;Logo for liyusky\n================\n\nThis logo was generated by MarkMaker and is composed of elements designed by others.\n\nThe font is Source Code Pro Light designed by Paul D. Hunt and released under the OFL license via Google Fonts: https://www.google.com/fonts/specimen/Source Code Pro. The font includes this copyright statement: Copyright 2010, 2012 Adobe Systems Incorporated (http://www.adobe.com/), with Reserved Font Name 'Source'. All Rights Reserved. Source is a trademark of Adobe Systems Incorporated in the United States and/or other countries.\n\nMarkMaker uses semantic data from the Princeton University WordNet database http://wordnet.princeton.edu and font descriptions from Google Fonts https://www.google.com/fonts.\n\nThis design is inspired by designs that past users of MarkMaker have liked. As a result, it may be visually similar to past or future designs generated by the system. There is no guarantee that it is unique, original, or suitable in any way for use as a logo.\n\n&quot;}"
        fill="url(#color-1)"
        stroke="none"
        stroke-width="1"
        stroke-linecap="butt"
        stroke-linejoin="miter"
        stroke-miterlimit="10"
        stroke-dasharray=""
        stroke-dashoffset="0"
        font-family="sans-serif"
        font-weight="normal"
        font-size="12"
        text-anchor="start"
        mix-blend-mode="normal">
        <g data-paper-data="{&quot;elementType&quot;:&quot;logo&quot;}">
            <g data-paper-data="{&quot;elementType&quot;:&quot;text&quot;}">
                <g data-paper-data="{&quot;baseline&quot;:67.10000000000001,&quot;elementType&quot;:&quot;row&quot;}">
                    <g data-paper-data="{&quot;baselineProportion&quot;:0.9824304538799414,&quot;fontSize&quot;:100,&quot;baseline&quot;:67.10000000000001,&quot;elementType&quot;:&quot;word&quot;}">
                        <path d="M30,15.22506l2.64066,0l0,37.14929l20.70518,0l0,2.4006l-23.34584,0l0,-39.54989z" data-paper-data="{&quot;elementType&quot;:&quot;letter&quot;,&quot;baseline&quot;:65.9,&quot;baselineProportion&quot;:1,&quot;fontSize&quot;:100}"></path>
                        <path
                            d="M63.42836,52.37434l10.20255,0l0,-34.74869l-10.20255,0l0,-2.4006l23.16579,0l0,2.4006l-10.20255,0l0,34.74869l10.20255,0l0,2.4006l-23.16579,0l0,-2.4006z"
                            data-paper-data="{&quot;elementType&quot;:&quot;letter&quot;,&quot;baseline&quot;:65.9,&quot;baselineProportion&quot;:1,&quot;fontSize&quot;:100}"></path>
                        <path
                            d="M109.63991,40.25131l-13.56339,-25.02626l2.82071,0l7.02176,13.08327c0.92023,1.52038 1.77044,3.05076 2.55064,4.59115c0.7802,1.54039 1.63041,3.11078 2.55064,4.71118l0.24006,0c0.92023,-1.6004 1.80045,-3.1808 2.64066,-4.74119c0.84021,-1.56039 1.68042,-3.10078 2.52063,-4.62116l6.84171,-13.02326l2.70068,0l-13.56339,25.02626l0,14.52363l-2.76069,0l0,-14.52363z"
                            data-paper-data="{&quot;elementType&quot;:&quot;letter&quot;,&quot;baseline&quot;:65.9,&quot;baselineProportion&quot;:1,&quot;fontSize&quot;:100}"></path>
                        <path
                            d="M134.36609,15.22506l2.76069,0l0,24.42611c0,2.56064 0.27007,4.69117 0.8102,6.3916c0.54014,1.70043 1.26032,3.06077 2.16054,4.08102c0.90023,1.02026 1.95049,1.75044 3.15079,2.19055c1.2003,0.44011 2.46062,0.66017 3.78095,0.66017c1.36034,0 2.65066,-0.22006 3.87097,-0.66017c1.22031,-0.44011 2.29057,-1.17029 3.2108,-2.19055c0.92023,-1.02026 1.65041,-2.3806 2.19055,-4.08102c0.54014,-1.70043 0.8102,-3.83096 0.8102,-6.3916l0,-24.42611l2.58065,0l0,24.72618c0,3.00075 -0.35009,5.50138 -1.05026,7.50188c-0.70018,2.0005 -1.63041,3.5909 -2.7907,4.77119c-1.16029,1.1803 -2.50063,2.02051 -4.02101,2.52063c-1.52038,0.50013 -3.12078,0.75019 -4.8012,0.75019c-1.64041,0 -3.23081,-0.25006 -4.77119,-0.75019c-1.54039,-0.50013 -2.89072,-1.34034 -4.05101,-2.52063c-1.16029,-1.1803 -2.09052,-2.77069 -2.7907,-4.77119c-0.70018,-2.0005 -1.05026,-4.50113 -1.05026,-7.50188l0,-24.72618z"
                            data-paper-data="{&quot;elementType&quot;:&quot;letter&quot;,&quot;baseline&quot;:65.9,&quot;baselineProportion&quot;:0.9821162444113264,&quot;fontSize&quot;:100}"></path>
                        <path
                            d="M171.39535,47.63316c1.52038,1.64041 3.32083,2.94074 5.40135,3.90098c2.08052,0.96024 4.34109,1.44036 6.7817,1.44036c3.24081,0 5.79145,-0.73018 7.65191,-2.19055c1.86047,-1.46037 2.7907,-3.37084 2.7907,-5.73143c0,-1.24031 -0.21005,-2.28057 -0.63016,-3.12078c-0.42011,-0.84021 -0.98025,-1.57039 -1.68042,-2.19055c-0.70018,-0.62016 -1.52038,-1.16029 -2.46062,-1.62041c-0.94024,-0.46012 -1.93048,-0.91023 -2.97074,-1.35034l-6.0015,-2.70068c-0.92023,-0.36009 -1.88047,-0.8002 -2.88072,-1.32033c-1.00025,-0.52013 -1.92048,-1.17029 -2.76069,-1.95049c-0.84021,-0.7802 -1.54039,-1.70043 -2.10053,-2.76069c-0.56014,-1.06027 -0.84021,-2.33058 -0.84021,-3.81095c0,-1.44036 0.30008,-2.75069 0.90023,-3.93098c0.60015,-1.1803 1.44036,-2.20055 2.52063,-3.06077c1.08027,-0.86022 2.36059,-1.53038 3.84096,-2.0105c1.48037,-0.48012 3.08077,-0.72018 4.8012,-0.72018c2.52063,0 4.77119,0.47012 6.75169,1.41035c1.9805,0.94024 3.6109,2.05051 4.89122,3.33083l-1.62041,1.86047c-1.24031,-1.24031 -2.69067,-2.23056 -4.35109,-2.97074c-1.66042,-0.74019 -3.55089,-1.11028 -5.67142,-1.11028c-2.8007,0 -5.05126,0.64016 -6.75169,1.92048c-1.70043,1.28032 -2.55064,3.00075 -2.55064,5.16129c0,1.16029 0.24006,2.14054 0.72018,2.94074c0.48012,0.8002 1.09027,1.49037 1.83046,2.07052c0.74019,0.58015 1.54039,1.08027 2.4006,1.50038c0.86022,0.42011 1.69042,0.7902 2.49062,1.11028l5.94149,2.64066c1.2003,0.48012 2.34059,1.02026 3.42086,1.62041c1.08027,0.60015 2.03051,1.30033 2.85071,2.10053c0.82021,0.8002 1.47037,1.75044 1.95049,2.85071c0.48012,1.10028 0.72018,2.4106 0.72018,3.93098c0,1.52038 -0.31008,2.93073 -0.93023,4.23106c-0.62016,1.30033 -1.51038,2.42061 -2.67067,3.36084c-1.16029,0.94024 -2.55064,1.68042 -4.17104,2.22056c-1.62041,0.54014 -3.43086,0.8102 -5.43136,0.8102c-3.04076,0 -5.72143,-0.55014 -8.04201,-1.65041c-2.32058,-1.10028 -4.30108,-2.53063 -5.94149,-4.29107l1.80045,-1.92048z"
                            data-paper-data="{&quot;elementType&quot;:&quot;letter&quot;,&quot;baseline&quot;:67.10000000000001,&quot;baselineProportion&quot;:0.9824304538799414,&quot;fontSize&quot;:100}"></path>
                        <path
                            d="M207.94449,15.22506l2.82071,0l0,21.96549l0.12003,0l19.50488,-21.96549l3.24081,0l-12.7832,14.64366l14.46362,24.90623l-3.1808,0l-13.2033,-22.8057l-8.16204,9.1823l0,13.62341l-2.82071,0l0,-39.54989z"
                            data-paper-data="{&quot;elementType&quot;:&quot;letter&quot;,&quot;baseline&quot;:65.9,&quot;baselineProportion&quot;:1,&quot;fontSize&quot;:100}"></path>
                        <path
                            d="M253.67592,40.25131l-13.56339,-25.02626l2.82071,0l7.02176,13.08327c0.92023,1.52038 1.77044,3.05076 2.55064,4.59115c0.7802,1.54039 1.63041,3.11078 2.55064,4.71118l0.24006,0c0.92023,-1.6004 1.80045,-3.1808 2.64066,-4.74119c0.84021,-1.56039 1.68042,-3.10078 2.52063,-4.62116l6.84171,-13.02326l2.70068,0l-13.56339,25.02626l0,14.52363l-2.76069,0l0,-14.52363z"
                            data-paper-data="{&quot;elementType&quot;:&quot;letter&quot;,&quot;baseline&quot;:65.9,&quot;baselineProportion&quot;:1,&quot;fontSize&quot;:100}"></path>
                    </g>
                </g>
            </g>
        </g>
    </g>
</svg>
